<svg width="1200" height="1200" xmlns="http://www.w3.org/2000/svg" xmlns:xlink="http://www.w3.org/1999/xlink" version="1.1"><g transform="scale(33.75) translate(384.7777777777777, -383.2222222222222)">                        <g fill="#f51723"><g xmlns="http://www.w3.org/2000/svg"><path d="M-367,393c-6.6,0-12,5.4-12,12s5.4,12,12,12s12-5.4,12-12S-360.4,393-367,393z M-367,415c-5.5,0-10-4.5-10-10s4.5-10,10-10   s10,4.5,10,10S-361.5,415-367,415z"/><path d="M-360,404c-0.6,0-1,0.4-1,1c0,3.3-2.7,6-6,6c-0.6,0-1,0.4-1,1s0.4,1,1,1c4.4,0,8-3.6,8-8C-359,404.4-359.4,404-360,404z"/><path d="M-366,398c0-0.6-0.4-1-1-1c-4.4,0-8,3.6-8,8c0,0.6,0.4,1,1,1s1-0.4,1-1c0-3.3,2.7-6,6-6C-366.4,399-366,398.6-366,398z"/><path d="M-376.5,394.6c0.6,0,1-0.4,1-1V392c0-2.7,2.2-5,5-5h7c2.7,0,5,2.2,5,5v1.6c0,0.6,0.4,1,1,1s1-0.4,1-1V392c0-3.8-3.1-7-7-7   h-7c-3.8,0-7,3.1-7,7v1.6C-377.5,394.1-377.1,394.6-376.5,394.6z"/></g></g>        </g></svg>

